<svg width="36" height="36" viewBox="0 0 36 36" fill="none" xmlns="http://www.w3.org/2000/svg">
<path d="M4.5 7.82671C3.88125 7.82671 3.375 8.32985 3.375 8.9448V10.4892L15.5039 20.3843C16.9594 21.5723 19.0477 21.5723 20.5031 20.3843L32.625 10.4892V8.9448C32.625 8.32985 32.1188 7.82671 31.5 7.82671H4.5ZM3.375 14.8288V26.8344C3.375 27.4493 3.88125 27.9525 4.5 27.9525H31.5C32.1188 27.9525 32.625 27.4493 32.625 26.8344V14.8288L22.6406 22.9769C19.9406 25.1782 16.0523 25.1782 13.3594 22.9769L3.375 14.8288ZM0 8.9448C0 6.478 2.01797 4.47241 4.5 4.47241H31.5C33.982 4.47241 36 6.478 36 8.9448V26.8344C36 29.3012 33.982 31.3068 31.5 31.3068H4.5C2.01797 31.3068 0 29.3012 0 26.8344V8.9448Z" fill="white"/>
</svg>
