<svg width="36" height="35" viewBox="0 0 36 35" fill="none" xmlns="http://www.w3.org/2000/svg">
<path d="M1.7312 23.5053C0.423442 24.0267 -0.272621 25.4013 0.100018 26.7149L1.78744 32.6738C2.12493 33.852 3.23582 34.6714 4.50139 34.6714C21.8959 34.6714 36 21.0879 36 4.33529C36 3.11643 35.1493 2.04654 33.9259 1.72151L27.7386 0.0963631C26.3746 -0.262524 24.9474 0.407848 24.406 1.66734L21.5936 8.16793C21.1155 9.27168 21.446 10.5515 22.4092 11.3031L25.8754 14.0388C23.5341 18.8059 19.5265 22.6656 14.5767 24.9205L11.7433 21.5822C10.9558 20.6545 9.63397 20.3362 8.48793 20.7967L1.73823 23.5053H1.7312Z" fill="white"/>
</svg>
